<?xml version="1.0" encoding="utf-8"?>

<!DOCTYPE svg PUBLIC "-//W3C//DTD SVG 1.1//EN" "http://www.w3.org/Graphics/SVG/1.1/DTD/svg11.dtd">
<svg version="1.1" id="Capa_1" xmlns="http://www.w3.org/2000/svg" xmlns:xlink="http://www.w3.org/1999/xlink" x="0px" y="0px"
	 width="595.28px" height="841.89px" viewBox="0 0 595.28 841.89" enable-background="new 0 0 595.28 841.89" xml:space="preserve">
<g>
	<path fill="#FFFFFF" d="M297.691,384.063v-19.085l-13.322-5.636c-0.627,1.676-1.183,3.311-1.675,4.901
		C289.956,368.121,295.352,375.389,297.691,384.063z"/>
	<path fill="#FFFFFF" d="M343.785,744.378c-5.393,1.993-6.217,8.057-4.133,13.696c2.029,5.485,6.768,9.32,11.898,7.426
		c5.17-1.91,6.303-7.828,4.148-13.658C353.81,746.736,349.219,742.371,343.785,744.378z"/>
	<path fill="#FFFFFF" d="M245.639,116.834c4.31-1.784,7.22-4.458,8.729-8.021c1.491-3.609,1.268-7.817-0.694-12.557
		c-1.867-4.507-4.626-7.501-8.241-8.89c-3.634-1.436-7.537-1.289-11.661,0.418c-1.649,0.736-3.128,1.621-4.43,2.541l11.486,27.737
		C242.383,118.018,243.785,117.601,245.639,116.834z"/>
	<path fill="#FFFFFF" d="M437.785,693.604c-2.861-2.401-6.072-0.977-8.512,1.931l-1.848,2.201l8,6.71
		c0.531-0.44,1.203-1.181,1.998-2.129C439.734,699.563,440.838,696.163,437.785,693.604z"/>
	<path fill="#FFFFFF" d="M496.43,372.97c-2.803,2.139-4.049,4.806-3.789,8.005c0.27,3.35,1.939,5.881,5.055,7.591
		c3.117,1.71,7.008,2.401,11.619,2.028c5.063-0.41,8.941-1.73,11.635-3.961c2.699-2.181,3.949-4.798,3.707-7.797
		c-0.289-2.945-1.9-5.381-4.731-7.315c-2.832-1.934-6.83-2.718-11.943-2.304C503.121,369.611,499.238,370.881,496.43,372.97z"/>
	<path fill="#FFFFFF" d="M427.629,686.179c-2.459-2.063-4.965-1.036-7.225,1.656c-1.025,1.224-1.522,2.006-1.789,2.512l6.756,5.666
		l2.027-2.417C429.76,690.782,429.652,687.876,427.629,686.179z"/>
	<path fill="#FFFFFF" d="M297.691,412.352v-19.084l-18.579-7.86c-0.049,2.293,0.034,4.162,0.143,5.55l1.324,0.56
		C288.906,395.041,295.13,402.856,297.691,412.352z"/>
	<path fill="#FFFFFF" d="M381.348,724.193c-4.678,3.345-3.875,9.412-0.379,14.304c3.4,4.76,8.98,7.212,13.432,4.03
		c4.484-3.205,4.02-9.215,0.404-14.271C391.639,723.827,386.059,720.825,381.348,724.193z"/>
	<path fill="#FFFFFF" d="M172.919,177.063c2.865-3.68,4.074-7.441,3.625-11.287c-0.487-3.875-2.759-7.424-6.806-10.575
		c-3.848-2.998-7.726-4.238-11.554-3.66c-3.868,0.547-7.188,2.601-9.93,6.123c-1.069,1.455-1.918,2.955-2.596,4.396l23.686,18.448
		C170.674,179.701,171.686,178.645,172.919,177.063z"/>
	<path fill="#FFFFFF" d="M300.691,279.931v10.361c1.347-1.04,2.119-1.57,2.119-1.57c1.774-1.226,3.486-2.447,5.151-3.665
		c2.22-2.391,4.788-4.381,7.639-5.851c4.573-3.672,8.668-7.291,12.34-10.836c-0.214,0.097-0.419,0.21-0.635,0.302L300.691,279.931z"
		/>
	<path fill="#FFFFFF" d="M271.507,750.765l-0.079-0.016c-0.717,1.512-1.481,3.055-2.324,4.582l-4.171,7.23l7.942,1.627l-1.001-8.248
		C271.646,754.07,271.581,752.396,271.507,750.765z"/>
	<path fill="#FFFFFF" d="M174.784,687.333c-3.707-4.398-9.69-3.114-14.286,0.762c-4.471,3.771-6.469,9.529-2.942,13.713
		c3.552,4.213,9.504,3.271,14.254-0.737C175.971,697.563,178.517,691.759,174.784,687.333z"/>
	<path fill="#FFFFFF" d="M322.135,91.4c0.416-4.86-0.658-8.789-3.229-11.685c-2.566-2.946-6.098-4.612-10.543-4.994
		c-1.803-0.104-3.521,0-5.102,0.218l-2.56,29.916c1.402,0.677,2.838,0.95,4.838,1.122c4.645,0.399,8.457-0.637,11.438-3.106
		C319.959,100.351,321.697,96.512,322.135,91.4z"/>
	<path fill="#FFFFFF" d="M99.828,267.963c-1.97-0.611-3.811-0.448-5.587,0.523c-1.761,0.925-3.013,2.583-3.741,4.931
		c-0.357,1.149-0.555,2.296-0.56,3.502l13.689,4.249c0.122-0.226,0.197-0.464,0.271-0.704l0.431-1.389
		C106.011,273.663,104.28,269.397,99.828,267.963z"/>
	<path fill="#FFFFFF" d="M297.691,440.641v-19.084l-13.967-5.909c0.667,2.456,1.384,4.855,2.15,7.189
		C291.523,426.962,295.708,433.291,297.691,440.641z"/>
	<path fill="#FFFFFF" d="M245.223,747.53c1.449-3.225-0.212-5.663-3.546-7.208c-1.53-0.689-2.689-1.032-3.266-1.113l-4.098,9.114
		l3.241,1.458C240.942,751.305,243.94,750.383,245.223,747.53z"/>
	<path fill="#FFFFFF" d="M297.691,336.689l-0.954-0.403c-1.808,2.552-3.436,5.07-4.9,7.543c2.644,3.439,4.655,7.502,5.854,11.945
		V336.689z"/>
	<path fill="#FFFFFF" d="M449.103,672.328l4.473-6.762l-8.025-2.146c-1.82-0.485-3.396-1.049-4.938-1.589l-0.045,0.065
		c1.137,1.229,2.281,2.515,3.385,3.865L449.103,672.328z"/>
	<polygon fill="#FFFFFF" points="190.761,122.187 194.724,135.926 203.515,128.693 	"/>
	<polygon fill="#FFFFFF" points="501.984,490.234 500.314,501.496 514.137,497.768 	"/>
	<path fill="#FFFFFF" d="M512.019,436.036c-0.238,1.146-0.373,2.146-0.404,3.098c-0.176,5.213,2.539,8.315,7.363,8.478
		c3.67,0.124,6.494-3.093,6.66-8.056c0.021-0.65,0.006-1.655-0.098-3.064L512.019,436.036z"/>
	<path fill="#FFFFFF" d="M495.182,435.469c-0.498,1.388-0.695,2.736-0.744,4.19c-0.162,4.86,2.584,8.518,7.357,8.678
		c4.424,0.148,7.91-3.296,8.121-9.563c0.023-0.752-0.043-1.758-0.059-2.813L495.182,435.469z"/>
	<path fill="#FFFFFF" d="M449.449,211.468c3.549,0.203,7.357-0.848,11.359-3.169c4.393-2.549,7.326-5.411,8.801-8.584
		c1.498-3.13,1.5-6.031-0.008-8.634c-1.529-2.535-4.031-4.04-7.418-4.568c-3.387-0.528-7.334,0.486-11.772,3.062
		c-4.221,2.447-7.178,5.266-8.813,8.359c-1.611,3.139-1.59,6.082,0.022,8.858C443.305,209.698,445.9,211.265,449.449,211.468z"/>
	<path fill="#FFFFFF" d="M297.624,26C143.439,26,18,203.674,18,422.065c0,218.392,125.439,396.066,279.624,396.066
		c154.185,0,279.624-177.675,279.624-396.066C577.248,203.674,451.81,26,297.624,26z M399.58,769.742
		c-32.032,19.809-66.072,29.853-101.173,29.853c-35.101,0-69.141-10.044-101.173-29.853c-30.868-19.09-58.578-46.398-82.359-81.169
		c-48.808-71.36-75.687-166.202-75.687-267.055s26.879-195.694,75.687-267.055c23.781-34.77,51.491-62.079,82.359-81.168
		c32.032-19.809,66.071-29.853,101.173-29.853c35.101,0,69.141,10.044,101.173,29.853c30.868,19.089,58.578,46.398,82.359,81.168
		c48.808,71.361,75.688,166.203,75.688,267.055s-26.88,195.694-75.688,267.055C458.158,723.344,430.448,750.652,399.58,769.742z"/>
	<path fill="#FFFFFF" d="M478.638,156.722C430.439,86.252,366.432,47.442,298.407,47.442s-132.032,38.81-180.23,109.279
		c-48.357,70.702-74.989,164.742-74.989,264.797s26.631,194.095,74.989,264.797c48.198,70.47,112.205,109.279,180.23,109.279
		s132.033-38.81,180.231-109.279c48.357-70.702,74.989-164.742,74.989-264.797S526.995,227.424,478.638,156.722z M526.682,378.923
		c0.385,4.749-1.053,8.79-4.264,12.119c-3.211,3.33-7.397,5.228-12.561,5.646c-5.162,0.418-9.502-0.84-13.125-3.817
		c-3.623-2.977-5.664-6.988-6.068-11.987c-0.34-4.803,1.098-8.844,4.26-12.169c3.262-3.333,7.445-5.232,12.512-5.592
		c5.264-0.427,9.713,0.924,13.242,4.01C524.209,370.218,526.246,374.178,526.682,378.923z M479.021,185.673l2.643,4.554
		l-0.565,0.328l-9.684-4.064l-1.082-1.865L479.021,185.673z M447.299,184.305c4.568-2.649,9.166-3.346,13.68-2.08
		c4.514,1.267,8.055,3.965,10.488,8.062c2.391,4.121,2.832,8.388,1.363,12.775c-1.467,4.389-4.428,7.903-8.908,10.502
		c-4.48,2.6-8.939,3.332-13.49,2.203c-4.551-1.129-8.117-3.872-10.633-8.209c-2.373-4.189-2.814-8.456-1.391-12.818
		C439.92,190.326,442.881,186.811,447.299,184.305z M407.771,136.408c3.789-3.607,8.111-5.243,12.969-4.906
		c4.893,0.302,9.117,2.393,12.744,6.279c1.678,1.796,2.922,3.791,4.236,6.747c0.553,1.476,0.791,1.731,1.064,2.025
		c0.547,0.657,1.572,0.726,2.49-0.061l0.41,0.439l-7.818,8.06l-0.52-0.408c3.229-4.869,3.465-10.44-0.883-15.095
		c-2.566-2.749-5.717-4.061-9.453-3.934c-3.699,0.092-7.314,1.822-10.953,5.221c-3.676,3.435-5.65,6.993-5.961,10.715
		c-0.275,3.757,0.922,7.029,3.625,9.925c3.047,3.262,7.465,4.898,12.881,4.507l-0.016,1.457c-6.428,0.855-11.658-0.914-15.768-5.313
		c-3.455-3.701-5.148-8.021-5.045-12.921C401.949,144.249,403.949,139.979,407.771,136.408z M345.703,294.667
		c0,13.686-7.354,25.91-18.398,30.583l-26.613,11.259v17.858c2.779-8.854,8.777-16.081,16.686-19.427l28.326-11.983
		c0,13.687-7.354,25.91-18.398,30.583l-26.613,11.259v17.858c2.779-8.854,8.777-16.081,16.686-19.426l28.326-11.983
		c0,13.686-7.354,25.91-18.398,30.583l-26.613,11.258v17.857c2.779-8.854,8.777-16.08,16.686-19.426l28.326-11.983
		c0,13.687-7.354,25.909-18.398,30.583l-26.613,11.259v17.857c2.779-8.854,8.777-16.081,16.686-19.427l28.326-11.983
		c0,13.687-7.354,25.909-18.398,30.583l-26.613,11.259v5.087c1.125,1.838,2.247,3.587,3.353,5.242
		c3.219-5.345,7.815-9.564,13.333-11.898l28.326-11.983c0,13.686-7.354,25.909-18.398,30.582l-13.887,5.875
		c1.305,1.568,2.482,2.912,3.499,4.034c0.155-0.069,0.303-0.152,0.46-0.219l28.326-11.984c0,11.755-5.434,22.416-13.962,28.155
		c16.135,21.784,13.901,43.641,13.901,43.641c-1.818,42.276-36.126,46.864-44.951,47.344v29.129
		c0.393,0.063,0.777,0.119,1.174,0.185c0,0,44.813,7.867,78.838-18.222c0.566-0.647,4.088-2.368,5.184-2.368
		c3.813,0,6.902,3.108,6.902,6.942c0,2.701-1.537,5.036-3.775,6.184l0.039,0.079c0,0-33.65,19.929-38.244,58.667
		c0,0-4.631,33.071,12.709,31.617c0,0,8.982-0.913,12.871-9.257c0,0,2.492,23.795-15.777,26.667c0,0-29.631,5.898-23.664-49.231
		c0,0,2.797-24.68,14.211-41.258c0,0-22.432,7.048-50.467,3.222v16.204c5.108,0.745,9.037,5.217,9.037,10.637h12.447l-22.984,50.011
		l-22.984-50.011h12.446c0-5.42,3.931-9.892,9.038-10.637v-16.759c-6.39-1.242-26.33-4.493-44.898-0.943
		c4.339,5.039,11.706,25.989,9.838,50.2c0,0-3.322,53.873-36.951,34.18c0,0,21.174-8.743,22.004-37.052
		c0,0,1.618-29.493-9.178-42.86c-7.18,3.345-13.37,8.373-17.402,15.773c-0.225,0.85-0.622,1.629-1.156,2.302
		c-0.026,0.058-0.055,0.111-0.081,0.169l-0.033-0.02c-1.199,1.426-3.017,2.335-5.053,2.335c-3.611,0-6.539-2.861-6.539-6.39
		c0-0.948,13.027-42.022,89.449-30.831v-28.625c-41.401-0.573-43.857-38.71-43.857-38.71c11.419,26.438,35.972,27.156,43.857,26.66
		v-65.106l-27.041-11.44c-11.044-4.673-18.398-16.896-18.398-30.583l28.327,11.984c8.327,3.522,14.55,11.337,17.112,20.833v-8.928
		c-6.271-5.703-11.711-11.435-16.435-17.109l-10.605-4.487c-11.044-4.673-18.398-16.896-18.398-30.582l9.032,3.821
		c-12.761-27.525-10.711-48.328-10.711-48.328c-0.125-10.61,1.123-20.449,3.3-29.499c-1.043-3.427-1.622-7.084-1.622-10.861
		l4.194,1.774c0.927-2.844,1.941-5.6,3.028-8.264c-4.538-5.853-7.221-13.554-7.221-21.8l14.84,6.278
		c0.872-1.511,1.761-2.981,2.662-4.41c-10.538-4.945-17.502-16.849-17.502-30.157l28.327,11.983c0.681,0.288,1.347,0.606,1.999,0.95
		c1.244-1.428,2.468-2.775,3.662-4.044l-15.589-6.595c-11.044-4.673-18.398-16.896-18.398-30.583l28.327,11.983
		c6.814,2.883,12.214,8.644,15.358,15.844c0.618-0.538,1.204-1.037,1.753-1.497v-12.596l-27.041-11.44
		c-11.044-4.673-18.398-16.896-18.398-30.583l28.327,11.984c8.327,3.523,14.55,11.337,17.112,20.833v-22.227l-27.041-11.439
		c-11.044-4.674-18.398-16.896-18.398-30.583l28.327,11.983c8.327,3.522,14.55,11.337,17.112,20.833v-19.068l-21.96-9.019
		c-9.064-3.723-15.098-13.461-15.098-24.366l23.247,9.548c6.603,2.713,11.586,8.626,13.811,15.851v-7.121l-15.261-13.094
		c-5.958-5.112-8.243-15.036-5.718-24.829l15.28,13.111c5.056,4.339,7.455,12.145,6.525,20.394h0.92
		c-0.929-8.249,1.469-16.055,6.525-20.394l15.281-13.111c2.525,9.793,0.24,19.717-5.719,24.829l-14.834,12.727v6.177
		c2.403-6.627,7.184-11.992,13.385-14.54l23.246-9.548c0,10.905-6.033,20.644-15.098,24.366l-21.533,8.844v17.836
		c2.779-8.854,8.777-16.081,16.686-19.426l28.326-11.983c0,13.687-7.354,25.909-18.398,30.583l-26.613,11.258v21.001
		c2.779-8.854,8.777-16.08,16.686-19.426l28.326-11.984c0,4.394-0.767,8.633-2.161,12.524
		c18.238-25.106,15.661-43.155,15.661-43.155c0.533-59.197-49.602-61.036-49.602-61.036c-43.086-2.619-58.233,28.813-58.233,28.813
		l-1.045,1.702c-12.797,22.92-23.375,21.316-23.375,21.316c-0.045-0.007-0.077-0.034-0.121-0.042
		c-0.956,3.163-1.642,7.276-1.642,7.276c-1.175,4.225,1.861,15.447,1.861,15.447c-3.82-6.261-3.697-13.581-3.697-13.581
		c-6.636,7.466-11.778,6.778-11.778,6.778c4.701-0.688,10.023-8.816,10.023-8.816c1.258-1.443,2.418-5.496,3.145-8.497
		c-3.437-4.932,0.642-20.799,0.642-20.799c1.959-11.001,11.89-9.817,11.89-9.817c31.096-40.988,68.674-37.593,68.674-37.593
		c77.83-1.048,76.002,79.605,76.002,79.605c0.003,43.662-29.552,75.883-46.574,90.822L345.703,294.667z M264.434,739.57
		l-6.349,2.898l-2.691-0.894l4.985-3.352L264.434,739.57z M339.512,113.457l0.77,0.361c2.387,1.176,4.152,0.948,5.33-1.442
		l11.365-24.224c1.111-2.367,0.109-3.892-2.297-5.021l-0.771-0.362l0.277-0.592l24.195,11.354l-2.688,6.794l-0.723-0.229
		c0.863-3.373,0.049-5.533-3.402-7.152l-8.762-4.11l-5.596,11.929l8.17,3.834c2.543,1.193,4.066,0.187,5.678-2.892l0.59,0.276
		l-5.189,11.064l-0.592-0.277c1.316-3.16,1.117-4.976-1.402-6.214l-8.172-3.834l-6.432,13.705l8.764,4.111
		c2.223,1.044,4.141,1.442,5.771,1.152c1.631-0.29,3.424-1.394,5.332-3.22l0.481,0.392l-6.055,6.883l-24.922-11.694L339.512,113.457
		z M289.944,105.902l0.85,0.073c2.644,0.277,4.224-0.546,4.501-3.198l2.28-26.657c0.224-2.606-1.243-3.691-3.892-3.918l-0.849-0.073
		l0.056-0.652l15.586,1.337c7.045,0.604,12.152,2.658,15.42,6.221c3.318,3.565,4.756,7.93,4.316,13.091
		c-0.459,5.361-2.672,9.462-6.645,12.353c-3.916,2.845-8.648,4.054-14.145,3.581l-17.536-1.505L289.944,105.902z M232.994,86.037
		c6.534-2.705,12.016-3.231,16.557-1.573c4.587,1.639,7.872,4.852,9.854,9.637c2.059,4.973,1.979,9.63-0.218,14.023
		c-2.17,4.328-5.818,7.579-10.916,9.688l-16.266,6.732l-0.251-0.604l0.788-0.325c2.475-0.971,3.5-2.429,2.526-4.91l-10.237-24.718
		c-1-2.415-2.803-2.703-5.259-1.688l-0.788,0.326l-0.25-0.604L232.994,86.037z M186.571,114.17l29.543,14.841
		c1.905,0.974,3.246,1.499,4.101,1.512c0.746,0.038,1.744-0.326,2.924-1.103l0.416,0.505l-10.844,8.921l-0.415-0.505
		c1.758-1.968,2.104-2.968,1.305-3.94c-0.416-0.505-0.876-0.906-1.485-1.253l-6.527-3.358l-10.224,8.411l2.042,6.982
		c0.487,1.619,0.59,1.665,0.75,1.858c0.856,1.12,2.561,0.824,4.227-0.545l0.415,0.505l-7.707,6.34l-0.418-0.504
		c1.234-1.341,1.404-3.109,0.45-6.558l-8.902-31.823L186.571,114.17z M146.717,156.529c4.344-5.579,8.848-8.745,13.614-9.546
		c4.797-0.84,9.238,0.331,13.325,3.515c4.245,3.306,6.477,7.396,6.736,12.302c0.25,4.835-1.314,9.464-4.703,13.816l-10.813,13.888
		l-0.516-0.402l0.524-0.673c1.672-2.065,1.843-3.84-0.229-5.517l-21.106-16.438c-2.064-1.605-3.772-0.967-5.405,1.13l-0.523,0.672
		l-0.516-0.4L146.717,156.529z M126.95,185.615l0.569,0.321l-0.42,0.742c-1.385,2.443-1.271,4.179,1.028,5.425l23.273,13.191
		c2.319,1.313,3.799,0.539,5.184-1.904l0.42-0.742l0.569,0.323l-7.742,13.654l-0.569-0.322l0.421-0.742
		c1.354-2.287,1.265-4.066-1.028-5.425l-23.273-13.191c-2.275-1.288-3.873-0.407-5.184,1.904l-0.42,0.741l-0.568-0.322
		L126.95,185.615z M105.057,227.586c0.683-1.563,1.622-2.957,2.771-4.206c1.109-1.157,1.701-1.883,1.842-2.205
		c0.261-0.597-0.017-1.594-0.838-2.227l0.221-0.506l10.368,4.533l-0.261,0.598c-2.411-0.89-4.82-0.902-7.115-0.046
		c-2.316,0.903-4.015,2.404-5.004,4.544c-1.205,2.756-0.426,5.996,2.155,7.125c1.106,0.482,2.28,0.559,3.589,0.2
		c1.309-0.357,4.098-2.094,8.328-5.114c2.95-2.104,5.427-3.374,7.475-3.792c2.003-0.438,3.949-0.244,5.746,0.542
		c2.396,1.047,4.022,2.853,4.904,5.48c0.922,2.537,0.647,5.426-0.739,8.597c-1.225,2.804-3.58,4.674-4.593,6.365l-0.321,0.735
		c-0.203,0.842,0.115,1.747,0.838,2.226l-0.261,0.598l-10.829-4.733l0.281-0.643c2.761,0.714,5.323,0.63,7.69-0.142
		c2.388-0.816,4.081-2.43,5.099-4.885c1.572-3.472,0.701-6.752-2.248-8.042c-1.541-0.619-3.164-0.672-4.804-0.184
		c-1.686,0.467-3.958,1.771-6.882,3.94c-3.07,2.379-5.561,3.809-7.491,4.332c-1.931,0.524-3.831,0.35-5.72-0.476
		c-2.304-1.008-3.878-2.681-4.702-5.064C103.732,232.753,103.893,230.251,105.057,227.586z M69.973,368.222l0.65,0.068
		c-0.278,2.643,0.085,3.992,1.091,4.047c0.6,0.063,1.366-0.007,2.208-0.322l23.21-7.186l-20.705-10.852
		c-0.724-0.328-1.403-0.601-2.053-0.67c-1.651-0.173-2.322,0.916-2.508,3.165l-0.65-0.068l1.05-9.973l0.65,0.068
		c-0.055,1.961,0.904,3.423,4.542,5.369l28.461,14.994l-0.063,0.6l-31.081,9.888c-2.201,0.727-3.64,1.433-4.375,2.162
		c-0.735,0.73-1.195,1.74-1.276,2.992l-0.65-0.069L69.973,368.222z M67.842,396.772l0.653,0.021l-0.026,0.852
		c-0.087,2.808,0.823,4.291,3.438,4.322l26.74,0.836c2.664,0.083,3.612-1.292,3.699-4.099l0.026-0.853l0.653,0.02l-0.487,15.689
		l-0.654-0.021l0.027-0.852c0.133-2.654-0.776-4.189-3.438-4.321l-26.74-0.836c-2.614-0.082-3.617,1.441-3.699,4.099l-0.026,0.852
		l-0.654-0.02L67.842,396.772z M68.99,469.261l-0.511-10.216l24.582-23.071l-21.449,1.075c-2.612,0.131-3.489,1.732-3.356,4.385
		l0.042,0.853l-0.653,0.032l-0.618-12.369l0.653-0.032l0.042,0.852c0.14,2.805,1.167,4.208,3.777,4.027l31.345-1.571l0.035,0.701
		l-27.354,26.021l23.961-1.2c2.665-0.084,3.496-1.581,3.356-4.387l-0.042-0.852l0.653-0.032l0.615,12.319l-0.653,0.032l-0.04-0.802
		c-0.083-2.656-1.112-4.11-3.777-4.027l-26.673,1.337c-2.264,2.071-3.412,4.288-3.282,6.893L68.99,469.261z M80.013,517.859
		c-2.583,0.407-3.286,2.093-2.872,4.718l0.132,0.842l-0.646,0.102l-2.44-15.503l0.646-0.102l0.132,0.842
		c0.437,2.773,1.607,4.063,4.183,3.605l18.333-2.89c7.502-1.183,9.83-5.152,8.809-11.642c-0.975-6.191-5.061-9.507-12.463-8.34
		l-17.836,2.81c-2.583,0.407-3.286,2.092-2.873,4.717l0.132,0.843l-0.646,0.102l-1.926-12.233l0.646-0.102l0.132,0.842
		c0.437,2.773,1.599,4.012,4.183,3.604l18.78-2.959c8.198-1.291,13.002,3.026,14.242,10.901c1.552,9.857-2.059,15.705-10.414,16.972
		L80.013,517.859z M114.292,568.331l-6.152-0.735v0.082l3.911,4.903l-2.566,1.472l-2.444-5.722h-0.082l-2.648,5.762l-2.322-1.471
		l3.871-4.985v-0.082l-6.03,0.776v-2.778l5.989,0.776v-0.082l-3.829-4.985l2.485-1.43l2.526,5.68h0.082l2.485-5.721l2.444,1.39
		l-3.871,5.107v0.082l6.152-0.817V568.331z M108.999,340.068l-0.641-0.127l0.167-0.836c0.567-2.597-0.076-4.258-2.681-4.828
		l-26.245-5.219c-2.565-0.51-3.806,0.828-4.324,3.435l-0.167,0.836l-0.641-0.128l5.213-26.212l7.241,0.98l-0.048,0.757
		c-3.482-0.027-5.383,1.281-6.126,5.02l-1.888,9.49l12.925,2.571l1.76-8.852c0.548-2.754-0.795-3.993-4.17-4.817l0.127-0.639
		l11.988,2.384l-0.127,0.639c-3.384-0.52-5.099,0.11-5.696,2.855l-1.761,8.851l14.849,2.953l1.888-9.492
		c0.479-2.409,0.407-4.366-0.267-5.881c-0.673-1.514-2.175-2.988-4.406-4.403l0.266-0.561l8.134,4.225L108.999,340.068z
		 M125.937,272.232l-19.433,6.624l-0.907,2.923l11.816,3.666c2.546,0.79,3.827-0.282,4.659-2.965l0.252-0.814l0.625,0.193
		l-4.652,14.992l-0.625-0.193l0.253-0.815c0.835-2.522,0.369-4.244-2.162-5.082l-25.555-7.931c-2.498-0.775-3.871,0.426-4.659,2.965
		l-0.252,0.814l-0.625-0.193l4.729-15.232c2.381-7.505,6.212-10.517,12.024-8.713c4.467,1.386,6.993,5.636,6.26,10.712l14.703-5.466
		c3.536-1.213,5.021-2.433,5.778-4.875l0.625,0.193L125.937,272.232z M142.46,686.731l9.577-7.304
		c3.049-2.307,6.715-5.079,9.562-6.96l-0.067-0.099c-3.172,1.039-6.624,2.025-10.514,3.02l-13.663,3.516l-1.479-2.184l8.354-10.917
		c2.478-3.223,4.799-6.098,7.064-8.548l-0.045-0.066c-2.87,1.849-6.782,4.258-10.313,6.359l-10.123,5.988l-1.859-2.744l23.72-13.801
		l2.486,3.67l-8.388,11.229c-2.164,2.817-4.138,5.264-6.111,7.42l0.067,0.101c2.667-0.987,5.694-1.88,9.224-2.824l13.652-3.459
		l2.486,3.671l-21.726,16.743L142.46,686.731z M155.222,703.514c-4.582-5.435-3.515-12.865,2.82-18.206
		c6.645-5.604,14.416-5.209,19.05,0.287c4.736,5.618,3.422,12.943-2.789,18.181C167.099,709.85,159.65,708.766,155.222,703.514z
		 M180.186,728.92l3.385-15.958c0.74-3.501,1.594-7.006,2.654-10.091l-0.115-0.054c-2.235,2.641-4.445,5.078-7.581,8.375
		l-8.064,8.479l-2.372-2.256l18.872-19.839l2.748,2.614l-3.299,15.983c-0.765,3.701-1.625,6.865-2.631,9.776l0.086,0.024
		c2.289-2.869,4.527-5.338,7.467-8.428l7.896-8.301l2.372,2.257l-18.872,19.839L180.186,728.92z M192.934,739.485l14.786-19.372
		l-6.51-4.968l1.824-2.39l15.845,12.091l-1.823,2.39l-6.542-4.99l-14.786,19.372L192.934,739.485z M220.827,754.542l-1.541,2.534
		l-12.937-7.859l14.223-23.396l12.425,7.549l-1.541,2.533l-9.455-5.743l-4.495,7.393l8.943,5.434l-1.518,2.497l-8.943-5.434
		l-5.128,8.436L220.827,754.542z M242.358,759.648c-0.765,3.845-1.265,6.515-1.188,7.706l-3.278-1.475
		c-0.084-0.884,0.336-3.278,1.044-6.702c0.821-3.773,0.093-5.66-2.734-7.065l-2.987-1.344l-4.865,10.817l-3.169-1.426l11.079-24.636
		c1.752,0.389,4.131,1.234,6.316,2.219c3.387,1.523,5.29,3.138,6.186,5.232c0.739,1.669,0.664,3.686-0.202,5.611
		c-1.483,3.297-4.506,4.565-7.492,4.291l-0.05,0.109C242.612,754.507,242.941,756.793,242.358,759.648z M246.645,769.056
		l8.629-25.979l3.297,1.095l-8.628,25.979L246.645,769.056z M274.115,776.053l-1.089-9.014l-9.351-1.914L259.209,773l-3.521-0.721
		l14.451-24.987l4.108,0.841l3.507,28.665L274.115,776.053z M302.197,768.146l-9.86-0.245l0.064-2.64l9.86,0.245L302.197,768.146z
		 M329.17,774.906c-7.459,1.386-13.965-2.363-15.603-11.189c-1.564-8.426,2.988-15.179,11.193-16.703
		c3.299-0.612,5.512-0.28,6.504,0.031l-0.297,2.988c-1.416-0.398-3.35-0.535-5.547-0.126c-6.203,1.151-9.578,5.95-8.266,13.019
		c1.225,6.588,5.74,10.128,12.18,8.932c2.08-0.386,4.119-1.219,5.367-2.152l1.219,2.623
		C334.781,773.202,332.389,774.309,329.17,774.906z M352.363,768.273c-6.668,2.465-13.295-1.063-16.168-8.837
		c-3.014-8.153-0.002-15.329,6.74-17.819c6.895-2.547,13.338,1.179,16.154,8.8C362.357,759.256,358.807,765.894,352.363,768.273z
		 M370.185,760.173l-13.123-24.025l3.049-1.666l11.701,21.423l10.094-5.516l1.424,2.603L370.185,760.173z M395.916,744.989
		c-5.781,4.134-13.103,2.477-17.922-4.267c-5.055-7.073-4.041-14.789,1.807-18.97c5.977-4.272,13.174-2.375,17.898,4.233
		C403.178,733.655,401.504,740.995,395.916,744.989z M428.092,716.739l-8.807-8.219c-2.785-2.62-6.133-5.771-8.465-8.263
		l-0.086,0.083c1.557,2.953,3.107,6.19,4.738,9.857l5.752,12.88l-1.904,1.821l-12.162-6.409c-3.592-1.904-6.814-3.712-9.609-5.535
		l-0.059,0.056c2.303,2.521,5.332,5.975,7.996,9.104l7.6,8.977l-2.395,2.291l-17.578-21.074l3.203-3.063l12.477,6.392
		c3.139,1.662,5.883,3.199,8.34,4.783l0.086-0.082c-1.42-2.465-2.807-5.299-4.328-8.621l-5.695-12.878l3.203-3.064l20.147,18.617
		L428.092,716.739z M438.9,704.857c-1.541,1.836-2.846,3.14-3.715,3.922l-20.637-17.31c0.725-1.372,2.078-3.364,3.645-5.229
		c2.232-2.661,4.137-3.983,6.273-4.381c1.707-0.393,3.49,0.011,5.141,1.395c2.023,1.696,2.693,4.5,1.682,7.352l0.063,0.053
		c2.141-1.54,5.715-2.451,8.828,0.159c1.807,1.515,2.586,3.366,2.74,5.269C443.051,698.646,441.725,701.493,438.9,704.857z
		 M449.482,691.273l-21.938-16.373l2.08-2.783l21.935,16.372L449.482,691.273z M465.045,668.841l-8.768-2.351l-5.266,7.961
		l5.639,7.08l-1.982,2.998l-17.785-22.727l2.313-3.497l27.898,7.438L465.045,668.841z M472.629,279.139l-0.613,0.228l-3.346-9.029
		l11.359-17.104l-1.063-2.868l-11.6,4.302c-2.498,0.927-2.857,2.559-1.883,5.191l0.297,0.801l-0.613,0.227l-5.453-14.72l0.611-0.227
		l0.297,0.8c0.877,2.51,2.295,3.588,4.813,2.709l25.082-9.304c2.453-0.909,2.809-2.699,1.885-5.191l-0.297-0.8l0.613-0.227
		l5.541,14.953c2.688,7.401,1.488,12.125-4.217,14.241c-4.385,1.626-8.977-0.201-11.49-4.671l-8.318,13.301
		C472.172,274.868,471.74,276.741,472.629,279.139z M478.289,301.652l0.639-0.137l0.18,0.834c0.506,2.609,1.754,3.881,4.371,3.373
		l26.164-5.593c2.557-0.547,3.166-2.267,2.611-4.866l-0.178-0.834l0.639-0.137l3.27,15.302c1.48,6.915,1.006,12.4-1.445,16.566
		c-2.441,4.214-6.195,6.862-11.262,7.945c-5.262,1.125-9.83,0.204-13.754-2.752c-3.863-2.918-6.4-7.093-7.555-12.487
		L478.289,301.652z M501.357,568.331l-6.15-0.735v0.082l3.91,4.903l-2.566,1.472l-2.443-5.722h-0.082l-2.647,5.762l-2.322-1.471
		l3.869-4.985v-0.082l-6.029,0.776v-2.778l5.988,0.776v-0.082l-3.828-4.985l2.484-1.43l2.525,5.68h0.08l2.486-5.721l2.443,1.39
		l-3.869,5.107v0.082l6.15-0.817V568.331z M522.619,500.902l-31.859,8.807c-2.066,0.556-3.412,1.064-4.055,1.629
		c-0.578,0.472-1.074,1.412-1.43,2.779l-0.647-0.097l2.059-13.891l0.648,0.097c0.014,2.64,0.43,3.612,1.674,3.797
		c0.645,0.098,1.258,0.086,1.939-0.065l7.094-1.889l1.941-13.096l-6.197-3.81c-1.445-0.874-1.553-0.839-1.803-0.876
		c-1.385-0.257-2.451,1.105-2.768,3.238l-0.647-0.097l1.463-9.871l0.648,0.098c-0.016,1.822,1.043,3.248,4.065,5.166l27.938,17.634
		L522.619,500.902z M524.969,450.574c-1.572,1.854-3.766,2.732-6.58,2.639c-4.172-0.141-7.301-2.855-7.713-7.085l-0.301-0.01
		c-0.572,5.049-4.201,8.238-8.676,8.088c-2.965-0.149-5.287-1.383-6.971-3.697c-1.684-2.313-2.488-5.352-2.363-9.112l0.559-16.642
		l0.652,0.022l-0.027,0.852c-0.141,2.655,0.766,4.191,3.428,4.331l26.74,0.901c2.611,0.088,3.621-1.435,3.709-4.092l0.029-0.852
		l0.652,0.022l-0.488,14.587C527.406,445.387,526.486,448.768,524.969,450.574z"/>
	<path fill="#FFFFFF" d="M502.195,328.082c4.772-1.021,8.215-3.192,10.234-6.496c2.068-3.314,2.631-7.178,1.699-11.543
		c-0.428-1.755-1.029-3.37-1.699-4.816l-29.361,6.276c-0.236,1.538-0.08,2.992,0.34,4.954c0.975,4.561,3.078,7.906,6.311,10.036
		C493,328.611,497.18,329.155,502.195,328.082z"/>
	<path fill="#FFFFFF" d="M328.928,533.053c-1.499-13.817-9.698-24.88-16.42-31.808l-11.816,4.999v64.964
		C334.093,566.234,328.928,533.053,328.928,533.053z"/>
	<path fill="#FFFFFF" d="M302.061,492.138c-0.457-0.391-0.921-0.781-1.369-1.172v4.846
		C301.086,494.553,301.539,493.324,302.061,492.138z"/>
	<path fill="#FFFFFF" d="M481.619,251.733c1.971,5.315,5.941,7.64,10.344,6.061c1.934-0.717,3.293-1.97,4.107-3.823
		c0.832-1.807,0.813-3.885-0.041-6.189c-0.418-1.129-0.961-2.158-1.691-3.117l-13.438,4.982c0.039,0.253,0.127,0.488,0.213,0.724
		L481.619,251.733z"/>
	<path fill="#186234" d="M509.801,129.773c-27.324-38.33-59.216-68.466-94.789-89.572C377.88,18.17,338.385,7,297.624,7
		c-40.761,0-80.256,11.17-117.388,33.201c-35.573,21.106-67.465,51.242-94.789,89.572C29.701,207.97-1,311.775-1,422.065
		c0,110.291,30.701,214.096,86.447,292.293c27.325,38.33,59.216,68.467,94.789,89.572c37.132,22.03,76.627,33.201,117.388,33.201
		c40.76,0,80.255-11.171,117.387-33.201c35.573-21.106,67.465-51.242,94.789-89.572c55.746-78.197,86.447-182.002,86.447-292.293
		C596.248,311.775,565.547,207.97,509.801,129.773z M297.624,818.132C143.439,818.132,18,640.457,18,422.065
		C18,203.674,143.439,26,297.624,26c154.185,0,279.624,177.674,279.624,396.065C577.248,640.457,451.81,818.132,297.624,818.132z"/>
	<path fill="#186234" d="M481.939,154.463c-23.781-34.77-51.491-62.079-82.359-81.168c-32.032-19.809-66.072-29.853-101.173-29.853
		c-35.101,0-69.141,10.044-101.173,29.853c-30.868,19.089-58.578,46.398-82.359,81.168
		c-48.808,71.361-75.687,166.203-75.687,267.055s26.879,195.694,75.687,267.055c23.781,34.771,51.491,62.079,82.359,81.169
		c32.032,19.809,66.071,29.853,101.173,29.853c35.101,0,69.141-10.044,101.173-29.853c30.868-19.09,58.578-46.398,82.359-81.169
		c48.808-71.36,75.688-166.202,75.688-267.055S530.747,225.824,481.939,154.463z M478.638,686.315
		c-48.198,70.47-112.206,109.279-180.231,109.279s-132.032-38.81-180.23-109.279c-48.357-70.702-74.989-164.742-74.989-264.797
		s26.631-194.095,74.989-264.797c48.198-70.47,112.205-109.279,180.23-109.279s132.033,38.81,180.231,109.279
		c48.357,70.702,74.989,164.742,74.989,264.797S526.995,615.613,478.638,686.315z"/>
	<path fill="#186234" d="M163.604,669.128l-13.652,3.459c-3.53,0.944-6.557,1.837-9.224,2.824l-0.067-0.101
		c1.973-2.156,3.947-4.602,6.111-7.42l8.388-11.229l-2.486-3.67l-23.72,13.801l1.859,2.744l10.123-5.988
		c3.531-2.102,7.443-4.511,10.313-6.359l0.045,0.066c-2.265,2.45-4.586,5.325-7.064,8.548l-8.354,10.917l1.479,2.184l13.663-3.516
		c3.89-0.995,7.342-1.981,10.514-3.02l0.067,0.099c-2.847,1.881-6.513,4.653-9.562,6.96l-9.577,7.304l1.904,2.811l21.726-16.743
		L163.604,669.128z"/>
	<path fill="#186234" d="M177.092,685.595c-4.634-5.496-12.405-5.891-19.05-0.287c-6.335,5.341-7.402,12.771-2.82,18.206
		c4.428,5.252,11.877,6.336,19.081,0.262C180.514,698.538,181.828,691.213,177.092,685.595z M171.81,701.07
		c-4.75,4.008-10.702,4.95-14.254,0.737c-3.527-4.184-1.529-9.941,2.942-13.713c4.596-3.876,10.579-5.159,14.286-0.762
		C178.517,691.759,175.971,697.563,171.81,701.07z"/>
	<path fill="#186234" d="M199.232,709.246l-7.896,8.301c-2.94,3.09-5.178,5.559-7.467,8.428l-0.086-0.024
		c1.006-2.911,1.866-6.075,2.631-9.776l3.299-15.983l-2.748-2.614l-18.872,19.839l2.372,2.256l8.064-8.479
		c3.136-3.297,5.346-5.734,7.581-8.375l0.115,0.054c-1.06,3.085-1.914,6.59-2.654,10.091l-3.385,15.958l2.546,2.422l18.872-19.839
		L199.232,709.246z"/>
	<polygon fill="#186234" points="217.056,727.236 218.879,724.847 203.034,712.756 201.21,715.146 207.72,720.113 192.934,739.485 
		195.728,741.618 210.514,722.246 	"/>
	<polygon fill="#186234" points="224.931,745.483 226.449,742.986 217.506,737.553 222.001,730.159 231.456,735.902 
		232.997,733.369 220.572,725.82 206.349,749.217 219.286,757.076 220.827,754.542 210.86,748.485 215.988,740.05 	"/>
	<path fill="#186234" d="M241.068,752.877c2.986,0.273,6.009-0.994,7.492-4.291c0.866-1.926,0.941-3.942,0.202-5.611
		c-0.896-2.095-2.799-3.709-6.186-5.232c-2.185-0.984-4.564-1.83-6.316-2.219l-11.079,24.636l3.169,1.426l4.865-10.817l2.987,1.344
		c2.827,1.405,3.555,3.293,2.734,7.065c-0.708,3.424-1.128,5.818-1.044,6.702l3.278,1.475c-0.077-1.191,0.423-3.861,1.188-7.706
		c0.583-2.854,0.254-5.141-1.34-6.661L241.068,752.877z M237.554,749.781l-3.241-1.458l4.098-9.114
		c0.577,0.081,1.736,0.425,3.266,1.113c3.334,1.545,4.995,3.983,3.546,7.208C243.94,750.383,240.942,751.305,237.554,749.781z"/>
	<polygon fill="#186234" points="255.394,741.575 258.085,742.469 264.434,739.57 260.379,738.223 	"/>
	
		<rect x="238.921" y="754.876" transform="matrix(0.3152 -0.949 0.949 0.3152 -545.0594 757.8439)" fill="#186234" width="27.374" height="3.475"/>
	<path fill="#186234" d="M270.139,747.292l-14.451,24.987l3.521,0.721l4.466-7.875l9.351,1.914l1.089,9.014l3.639,0.745
		l-3.507-28.665L270.139,747.292z M264.933,762.562l4.171-7.23c0.843-1.527,1.607-3.07,2.324-4.582l0.079,0.016
		c0.074,1.632,0.139,3.306,0.367,5.176l1.001,8.248L264.933,762.562z"/>
	
		<rect x="292.368" y="765.383" transform="matrix(-0.9997 -0.0249 0.0249 -0.9997 575.4542 1540.5575)" fill="#186234" width="9.863" height="2.64"/>
	<path fill="#186234" d="M329.334,771.859c-6.44,1.196-10.955-2.344-12.18-8.932c-1.313-7.069,2.063-11.868,8.266-13.019
		c2.197-0.409,4.131-0.273,5.547,0.126l0.297-2.988c-0.992-0.312-3.205-0.644-6.504-0.031c-8.205,1.525-12.758,8.277-11.193,16.703
		c1.639,8.825,8.145,12.574,15.603,11.189c3.219-0.598,5.611-1.704,6.75-2.576l-1.219-2.623
		C333.453,770.641,331.414,771.474,329.334,771.859z"/>
	<path fill="#186234" d="M342.935,741.617c-6.742,2.49-9.754,9.666-6.74,17.819c2.873,7.773,9.5,11.302,16.168,8.837
		c6.443-2.38,9.994-9.017,6.727-17.856C356.273,742.796,349.83,739.07,342.935,741.617z M351.551,765.5
		c-5.131,1.894-9.869-1.94-11.898-7.426c-2.084-5.64-1.26-11.703,4.133-13.696c5.434-2.007,10.025,2.358,11.914,7.464
		C357.853,757.672,356.721,763.59,351.551,765.5z"/>
	<polygon fill="#186234" points="371.813,755.904 360.111,734.481 357.063,736.148 370.185,760.173 383.33,752.991 381.906,750.389 
			"/>
	<path fill="#186234" d="M379.801,721.753c-5.848,4.181-6.861,11.896-1.807,18.97c4.818,6.743,12.141,8.4,17.922,4.267
		c5.588-3.994,7.262-11.334,1.783-19.003C392.975,719.378,385.777,717.481,379.801,721.753z M394.4,742.527
		c-4.451,3.182-10.031,0.729-13.432-4.03c-3.496-4.892-4.299-10.959,0.379-14.304c4.711-3.368,10.291-0.366,13.457,4.063
		C398.42,733.313,398.885,739.322,394.4,742.527z"/>
	<path fill="#186234" d="M407.195,698.839l5.695,12.878c1.521,3.322,2.908,6.156,4.328,8.621l-0.086,0.082
		c-2.457-1.584-5.201-3.121-8.34-4.783l-12.477-6.392l-3.203,3.063l17.578,21.074l2.395-2.291l-7.6-8.977
		c-2.664-3.129-5.693-6.583-7.996-9.104l0.059-0.056c2.795,1.823,6.018,3.631,9.609,5.535l12.162,6.409l1.904-1.821l-5.752-12.88
		c-1.631-3.667-3.182-6.904-4.738-9.857l0.086-0.083c2.332,2.492,5.68,5.643,8.465,8.263l8.807,8.219l2.453-2.347l-20.147-18.617
		L407.195,698.839z"/>
	<path fill="#186234" d="M440.18,690.816c-3.113-2.61-6.688-1.699-8.828-0.159l-0.063-0.053c1.012-2.852,0.342-5.655-1.682-7.352
		c-1.65-1.384-3.434-1.787-5.141-1.395c-2.137,0.398-4.041,1.72-6.273,4.381c-1.566,1.865-2.92,3.857-3.645,5.229l20.637,17.31
		c0.869-0.782,2.174-2.086,3.715-3.922c2.824-3.364,4.15-6.212,4.02-8.772C442.766,694.183,441.986,692.331,440.18,690.816z
		 M425.371,696.013l-6.756-5.666c0.268-0.506,0.764-1.288,1.789-2.512c2.26-2.692,4.766-3.719,7.225-1.656
		c2.023,1.697,2.131,4.604-0.23,7.417L425.371,696.013z M437.424,702.316c-0.795,0.948-1.467,1.688-1.998,2.129l-8-6.71l1.848-2.201
		c2.44-2.907,5.65-4.332,8.512-1.931C440.838,696.163,439.734,699.563,437.424,702.316z"/>
	
		<rect x="425.866" y="679.957" transform="matrix(-0.8014 -0.5981 0.5981 -0.8014 384.071 1490.9125)" fill="#186234" width="27.374" height="3.474"/>
	<path fill="#186234" d="M436.883,661.803l17.785,22.727l1.982-2.998l-5.639-7.08l5.266-7.961l8.768,2.351l2.049-3.098
		l-27.898-7.438L436.883,661.803z M440.613,661.831c1.541,0.54,3.117,1.103,4.938,1.589l8.025,2.146l-4.473,6.762l-5.15-6.566
		c-1.104-1.351-2.248-2.636-3.385-3.865L440.613,661.831z"/>
	<path fill="#186234" d="M108.661,498.017c-1.24-7.875-6.044-12.192-14.242-10.901l-18.78,2.959
		c-2.584,0.407-3.746-0.831-4.183-3.604l-0.132-0.842l-0.646,0.102l1.926,12.233l0.646-0.102l-0.132-0.843
		c-0.413-2.625,0.29-4.31,2.873-4.717l17.836-2.81c7.402-1.167,11.488,2.148,12.463,8.34c1.021,6.489-1.307,10.459-8.809,11.642
		l-18.333,2.89c-2.576,0.457-3.746-0.832-4.183-3.605l-0.132-0.842l-0.646,0.102l2.44,15.503l0.646-0.102l-0.132-0.842
		c-0.414-2.625,0.289-4.31,2.872-4.718l18.234-2.871C106.602,513.722,110.213,507.874,108.661,498.017z"/>
	<path fill="#186234" d="M72.925,462.336l26.673-1.337c2.665-0.083,3.694,1.371,3.777,4.027l0.04,0.802l0.653-0.032l-0.615-12.319
		l-0.653,0.032l0.042,0.852c0.14,2.806-0.691,4.303-3.356,4.387l-23.961,1.2l27.354-26.021l-0.035-0.701l-31.345,1.571
		c-2.61,0.181-3.637-1.223-3.777-4.027l-0.042-0.852l-0.653,0.032l0.618,12.369l0.653-0.032l-0.042-0.853
		c-0.133-2.653,0.744-4.254,3.356-4.385l21.449-1.075l-24.582,23.071l0.511,10.216l0.653-0.032
		C69.513,466.624,70.661,464.407,72.925,462.336z"/>
	<path fill="#186234" d="M68.034,411.63c0.082-2.657,1.085-4.181,3.699-4.099l26.74,0.836c2.662,0.133,3.571,1.667,3.438,4.321
		l-0.027,0.852l0.654,0.021l0.487-15.689l-0.653-0.02l-0.026,0.853c-0.087,2.807-1.035,4.182-3.699,4.099l-26.74-0.836
		c-2.615-0.031-3.525-1.515-3.438-4.322l0.026-0.852l-0.653-0.021l-0.488,15.689l0.654,0.02L68.034,411.63z"/>
	<path fill="#186234" d="M70.4,379.512c0.735-0.729,2.174-1.435,4.375-2.162l31.081-9.888l0.063-0.6l-28.461-14.994
		c-3.638-1.946-4.597-3.408-4.542-5.369l-0.65-0.068l-1.05,9.973l0.65,0.068c0.186-2.249,0.857-3.338,2.508-3.165
		c0.65,0.069,1.329,0.342,2.053,0.67l20.705,10.852l-23.21,7.186c-0.842,0.316-1.608,0.385-2.208,0.322
		c-1.006-0.055-1.369-1.404-1.091-4.047l-0.65-0.068l-1.499,14.213l0.65,0.069C69.205,381.252,69.665,380.242,70.4,379.512z"/>
	<path fill="#186234" d="M105.969,309.405c2.231,1.415,3.733,2.89,4.406,4.403c0.674,1.515,0.746,3.472,0.267,5.881l-1.888,9.492
		l-14.849-2.953l1.761-8.851c0.597-2.745,2.312-3.375,5.696-2.855l0.127-0.639l-11.988-2.384l-0.127,0.639
		c3.375,0.824,4.718,2.064,4.17,4.817l-1.76,8.852l-12.925-2.571l1.888-9.49c0.743-3.738,2.644-5.047,6.126-5.02l0.048-0.757
		l-7.241-0.98l-5.213,26.212l0.641,0.128l0.167-0.836c0.518-2.607,1.759-3.944,4.324-3.435l26.245,5.219
		c2.605,0.57,3.248,2.231,2.681,4.828l-0.167,0.836l0.641,0.127l5.37-27l-8.134-4.225L105.969,309.405z"/>
	<path fill="#186234" d="M122.388,267.719l-14.703,5.466c0.733-5.076-1.793-9.326-6.26-10.712
		c-5.812-1.804-9.643,1.208-12.024,8.713l-4.729,15.232l0.625,0.193l0.252-0.814c0.788-2.539,2.161-3.74,4.659-2.965l25.555,7.931
		c2.531,0.838,2.997,2.56,2.162,5.082l-0.253,0.815l0.625,0.193l4.652-14.992l-0.625-0.193l-0.252,0.814
		c-0.832,2.683-2.113,3.755-4.659,2.965l-11.816-3.666l0.907-2.923l19.433-6.624l2.854-9.195l-0.625-0.193
		C127.409,265.286,125.924,266.506,122.388,267.719z M104.331,279.075l-0.431,1.389c-0.074,0.24-0.149,0.479-0.271,0.704
		l-13.689-4.249c0.005-1.206,0.203-2.353,0.56-3.502c0.728-2.348,1.98-4.006,3.741-4.931c1.776-0.972,3.617-1.135,5.587-0.523
		C104.28,269.397,106.011,273.663,104.331,279.075z"/>
	<path fill="#186234" d="M109.258,240.202c1.889,0.825,3.789,1,5.72,0.476c1.93-0.523,4.421-1.953,7.491-4.332
		c2.924-2.169,5.196-3.474,6.882-3.94c1.64-0.487,3.263-0.435,4.804,0.184c2.949,1.29,3.82,4.57,2.248,8.042
		c-1.018,2.455-2.711,4.068-5.099,4.885c-2.367,0.771-4.929,0.855-7.69,0.142l-0.281,0.643l10.829,4.733l0.261-0.598
		c-0.723-0.479-1.041-1.385-0.838-2.226l0.321-0.735c1.013-1.691,3.368-3.561,4.593-6.365c1.386-3.171,1.661-6.06,0.739-8.597
		c-0.882-2.628-2.508-4.434-4.904-5.48c-1.797-0.786-3.743-0.98-5.746-0.542c-2.048,0.418-4.525,1.688-7.475,3.792
		c-4.23,3.021-7.019,4.757-8.328,5.114c-1.309,0.358-2.483,0.282-3.589-0.2c-2.581-1.129-3.36-4.369-2.155-7.125
		c0.989-2.14,2.688-3.641,5.004-4.544c2.295-0.856,4.704-0.844,7.115,0.046l0.261-0.598l-10.368-4.533l-0.221,0.506
		c0.821,0.633,1.099,1.63,0.838,2.227c-0.141,0.322-0.733,1.048-1.842,2.205c-1.149,1.249-2.088,2.644-2.771,4.206
		c-1.164,2.665-1.325,5.167-0.501,7.552C105.38,237.521,106.954,239.194,109.258,240.202z"/>
	<path fill="#186234" d="M120.198,198.85c1.311-2.311,2.909-3.192,5.184-1.904l23.273,13.191c2.293,1.358,2.382,3.138,1.028,5.425
		l-0.421,0.742l0.569,0.322l7.742-13.654l-0.569-0.323l-0.42,0.742c-1.385,2.443-2.865,3.218-5.184,1.904l-23.273-13.191
		c-2.299-1.246-2.413-2.981-1.028-5.425l0.42-0.742l-0.569-0.321l-7.74,13.653l0.568,0.322L120.198,198.85z"/>
	<path fill="#186234" d="M138.144,168.604c1.633-2.097,3.342-2.735,5.405-1.13l21.106,16.438c2.072,1.677,1.901,3.451,0.229,5.517
		l-0.524,0.673l0.516,0.402l10.813-13.888c3.389-4.352,4.953-8.981,4.703-13.816c-0.259-4.906-2.491-8.996-6.736-12.302
		c-4.087-3.184-8.528-4.354-13.325-3.515c-4.766,0.801-9.27,3.967-13.614,9.546l-9.612,12.346l0.516,0.4L138.144,168.604z
		 M148.254,157.663c2.742-3.523,6.062-5.576,9.93-6.123c3.828-0.578,7.706,0.662,11.554,3.66c4.047,3.151,6.319,6.7,6.806,10.575
		c0.449,3.846-0.76,7.607-3.625,11.287c-1.233,1.583-2.245,2.639-3.575,3.445l-23.686-18.448
		C146.336,160.618,147.185,159.118,148.254,157.663z"/>
	<path fill="#186234" d="M194.674,152.838l0.418,0.504l7.707-6.34l-0.415-0.505c-1.666,1.369-3.371,1.665-4.227,0.545
		c-0.16-0.193-0.263-0.239-0.75-1.858l-2.042-6.982l10.224-8.411l6.527,3.358c0.609,0.347,1.069,0.748,1.485,1.253
		c0.799,0.973,0.453,1.973-1.305,3.94l0.415,0.505l10.844-8.921l-0.416-0.505c-1.18,0.776-2.178,1.141-2.924,1.103
		c-0.855-0.013-2.196-0.538-4.101-1.512l-29.543-14.841l-0.349,0.287l8.902,31.823C196.078,149.729,195.908,151.497,194.674,152.838
		z M190.761,122.187l12.754,6.507l-8.791,7.232L190.761,122.187z"/>
	<path fill="#186234" d="M219.573,92.299c2.456-1.016,4.259-0.728,5.259,1.688l10.237,24.718c0.974,2.481-0.051,3.939-2.526,4.91
		l-0.788,0.325l0.251,0.604l16.266-6.732c5.098-2.108,8.746-5.359,10.916-9.688c2.197-4.394,2.277-9.051,0.218-14.023
		c-1.982-4.785-5.267-7.998-9.854-9.637c-4.541-1.658-10.023-1.132-16.557,1.573l-14.459,5.983l0.25,0.604L219.573,92.299z
		 M233.772,87.784c4.124-1.707,8.027-1.854,11.661-0.418c3.615,1.389,6.374,4.383,8.241,8.89c1.962,4.739,2.185,8.947,0.694,12.557
		c-1.509,3.563-4.419,6.237-8.729,8.021c-1.854,0.767-3.256,1.184-4.811,1.229l-11.486-27.737
		C230.644,89.405,232.123,88.521,233.772,87.784z"/>
	<path fill="#186234" d="M321.568,104.478c3.973-2.891,6.186-6.991,6.645-12.353c0.439-5.161-0.998-9.525-4.316-13.091
		c-3.268-3.563-8.375-5.616-15.42-6.221l-15.586-1.337l-0.056,0.652l0.849,0.073c2.648,0.227,4.115,1.312,3.892,3.918l-2.28,26.657
		c-0.277,2.652-1.857,3.476-4.501,3.198l-0.85-0.073l-0.056,0.651l17.536,1.505C312.92,108.531,317.652,107.322,321.568,104.478z
		 M305.539,105.978c-2-0.172-3.436-0.445-4.838-1.122l2.56-29.916c1.58-0.218,3.299-0.321,5.102-0.218
		c4.445,0.382,7.977,2.048,10.543,4.994c2.57,2.896,3.645,6.824,3.229,11.685c-0.438,5.111-2.176,8.95-5.158,11.471
		C313.996,105.341,310.184,106.377,305.539,105.978z"/>
	<path fill="#186234" d="M370.209,118.86l-0.481-0.392c-1.908,1.826-3.701,2.93-5.332,3.22c-1.631,0.29-3.549-0.108-5.771-1.152
		l-8.764-4.111l6.432-13.705l8.172,3.834c2.52,1.238,2.719,3.054,1.402,6.214l0.592,0.277l5.189-11.064l-0.59-0.276
		c-1.611,3.078-3.135,4.085-5.678,2.892l-8.17-3.834l5.596-11.929l8.762,4.11c3.451,1.619,4.266,3.779,3.402,7.152l0.723,0.229
		l2.688-6.794l-24.195-11.354l-0.277,0.592l0.771,0.362c2.406,1.129,3.408,2.654,2.297,5.021l-11.365,24.224
		c-1.178,2.391-2.943,2.618-5.33,1.442l-0.77-0.361l-0.279,0.592l24.922,11.694L370.209,118.86z"/>
	<path fill="#186234" d="M422.588,167.38l0.016-1.457c-5.416,0.392-9.834-1.245-12.881-4.507c-2.703-2.896-3.9-6.168-3.625-9.925
		c0.311-3.722,2.285-7.28,5.961-10.715c3.639-3.398,7.254-5.129,10.953-5.221c3.736-0.127,6.887,1.185,9.453,3.934
		c4.348,4.654,4.111,10.225,0.883,15.095l0.52,0.408l7.818-8.06l-0.41-0.439c-0.918,0.786-1.943,0.718-2.49,0.061
		c-0.273-0.294-0.512-0.55-1.064-2.025c-1.314-2.956-2.559-4.951-4.236-6.747c-3.627-3.886-7.852-5.978-12.744-6.279
		c-4.857-0.337-9.18,1.299-12.969,4.906c-3.822,3.57-5.822,7.841-5.996,12.737c-0.104,4.9,1.59,9.22,5.045,12.921
		C410.93,166.466,416.16,168.235,422.588,167.38z"/>
	<path fill="#186234" d="M439.799,207.558c2.516,4.337,6.082,7.08,10.633,8.209c4.551,1.129,9.01,0.396,13.49-2.203
		c4.48-2.599,7.441-6.113,8.908-10.502c1.469-4.388,1.027-8.654-1.363-12.775c-2.434-4.097-5.975-6.795-10.488-8.062
		c-4.514-1.266-9.111-0.569-13.68,2.08c-4.418,2.506-7.379,6.021-8.891,10.435C436.984,199.102,437.426,203.369,439.799,207.558z
		 M441.6,197.934c1.635-3.094,4.592-5.912,8.813-8.359c4.438-2.575,8.385-3.59,11.772-3.062c3.387,0.528,5.889,2.033,7.418,4.568
		c1.508,2.602,1.506,5.504,0.008,8.634c-1.475,3.173-4.408,6.035-8.801,8.584c-4.002,2.321-7.811,3.372-11.359,3.169
		c-3.549-0.203-6.145-1.77-7.828-4.676C440.01,204.016,439.988,201.072,441.6,197.934z"/>
	<polygon fill="#186234" points="481.1,190.555 481.664,190.227 479.021,185.673 470.334,184.626 471.416,186.491 	"/>
	<path fill="#186234" d="M482.553,258.449c2.514,4.47,7.105,6.297,11.49,4.671c5.705-2.116,6.904-6.84,4.217-14.241l-5.541-14.953
		l-0.613,0.227l0.297,0.8c0.924,2.492,0.568,4.282-1.885,5.191l-25.082,9.304c-2.517,0.879-3.935-0.199-4.813-2.709l-0.297-0.8
		l-0.611,0.227l5.453,14.72l0.613-0.227l-0.297-0.801c-0.975-2.633-0.615-4.265,1.883-5.191l11.6-4.302l1.063,2.868l-11.359,17.104
		l3.346,9.029l0.613-0.228c-0.889-2.397-0.457-4.271,1.605-7.389L482.553,258.449z M494.338,244.664
		c0.73,0.959,1.273,1.988,1.691,3.117c0.853,2.305,0.873,4.383,0.041,6.189c-0.814,1.854-2.174,3.106-4.107,3.823
		c-4.402,1.579-8.373-0.746-10.344-6.061l-0.506-1.363c-0.086-0.235-0.174-0.471-0.213-0.724L494.338,244.664z"/>
	<path fill="#186234" d="M489.523,331.354c3.924,2.956,8.492,3.877,13.754,2.752c5.066-1.083,8.82-3.731,11.262-7.945
		c2.451-4.166,2.926-9.651,1.445-16.566l-3.27-15.302l-0.639,0.137l0.178,0.834c0.555,2.6-0.055,4.319-2.611,4.866l-26.164,5.593
		c-2.617,0.508-3.865-0.764-4.371-3.373l-0.18-0.834l-0.639,0.137l3.68,17.215C483.123,324.262,485.66,328.436,489.523,331.354z
		 M483.408,316.457c-0.42-1.962-0.576-3.416-0.34-4.954l29.361-6.276c0.67,1.446,1.271,3.061,1.699,4.816
		c0.932,4.365,0.369,8.229-1.699,11.543c-2.02,3.304-5.463,5.476-10.234,6.496c-5.016,1.073-9.195,0.529-12.477-1.589
		C486.486,324.363,484.383,321.018,483.408,316.457z"/>
	<path fill="#186234" d="M507.435,363.122c-5.066,0.359-9.25,2.259-12.512,5.592c-3.162,3.325-4.6,7.366-4.26,12.169
		c0.404,4.999,2.445,9.01,6.068,11.987c3.623,2.978,7.963,4.235,13.125,3.817c5.164-0.418,9.35-2.315,12.561-5.646
		c3.211-3.329,4.648-7.37,4.264-12.119c-0.435-4.745-2.473-8.705-6.004-11.791C517.148,364.046,512.699,362.695,507.435,363.122z
		 M519.926,371.521c2.83,1.935,4.441,4.37,4.731,7.315c0.242,2.999-1.008,5.616-3.707,7.797c-2.693,2.231-6.572,3.551-11.635,3.961
		c-4.611,0.373-8.502-0.318-11.619-2.028c-3.115-1.71-4.785-4.241-5.055-7.591c-0.26-3.199,0.986-5.866,3.789-8.005
		c2.809-2.089,6.691-3.358,11.553-3.753C513.096,368.803,517.094,369.587,519.926,371.521z"/>
	<path fill="#186234" d="M527.455,425.918l-0.029,0.852c-0.088,2.657-1.098,4.18-3.709,4.092l-26.74-0.901
		c-2.662-0.14-3.568-1.676-3.428-4.331l0.027-0.852l-0.652-0.022l-0.559,16.642c-0.125,3.76,0.68,6.799,2.363,9.112
		c1.684,2.314,4.006,3.548,6.971,3.697c4.475,0.15,8.103-3.039,8.676-8.088l0.301,0.01c0.412,4.229,3.541,6.944,7.713,7.085
		c2.814,0.094,5.008-0.785,6.58-2.639c1.517-1.807,2.438-5.188,2.65-10.048l0.488-14.587L527.455,425.918z M509.916,438.774
		c-0.211,6.267-3.697,9.711-8.121,9.563c-4.773-0.16-7.52-3.817-7.357-8.678c0.049-1.454,0.246-2.803,0.744-4.19l14.676,0.493
		C509.873,437.017,509.939,438.022,509.916,438.774z M525.639,439.556c-0.166,4.963-2.99,8.18-6.66,8.056
		c-4.824-0.162-7.539-3.265-7.363-8.478c0.031-0.952,0.166-1.952,0.404-3.098l13.522,0.456
		C525.644,437.9,525.66,438.905,525.639,439.556z"/>
	<path fill="#186234" d="M490.682,477.656l-0.648-0.098l-1.463,9.871l0.647,0.097c0.316-2.134,1.383-3.495,2.768-3.238
		c0.25,0.037,0.357,0.002,1.803,0.876l6.197,3.81l-1.941,13.096l-7.094,1.889c-0.682,0.151-1.295,0.163-1.939,0.065
		c-1.244-0.185-1.66-1.157-1.674-3.797l-0.648-0.097l-2.059,13.891l0.647,0.097c0.355-1.367,0.852-2.308,1.43-2.779
		c0.643-0.564,1.988-1.073,4.055-1.629l31.859-8.807l0.065-0.446l-27.938-17.634C491.725,480.904,490.666,479.478,490.682,477.656z
		 M501.984,490.234l12.152,7.533l-13.822,3.728L501.984,490.234z"/>
	<polygon fill="#186234" points="495.207,566.288 499.076,561.181 496.633,559.791 494.146,565.512 494.066,565.512 
		491.541,559.832 489.057,561.262 492.885,566.247 492.885,566.329 486.896,565.553 486.896,568.331 492.926,567.555 
		492.926,567.637 489.057,572.622 491.379,574.093 494.025,568.331 494.107,568.331 496.551,574.053 499.117,572.581 
		495.207,567.678 495.207,567.596 501.357,568.331 501.357,565.553 495.207,566.37 	"/>
	<polygon fill="#186234" points="108.14,566.288 112.011,561.181 109.567,559.791 107.082,565.512 107,565.512 104.474,559.832 
		101.989,561.262 105.819,566.247 105.819,566.329 99.83,565.553 99.83,568.331 105.86,567.555 105.86,567.637 101.989,572.622 
		104.311,574.093 106.959,568.331 107.041,568.331 109.485,574.053 112.051,572.581 108.14,567.678 108.14,567.596 114.292,568.331 
		114.292,565.553 108.14,566.37 	"/>
	<path fill="#186234" d="M297.691,645.125v-3.023c-5.107,0.745-9.038,5.217-9.038,10.637h-12.446l22.984,50.011l22.984-50.011
		h-12.447c0-5.42-3.929-9.892-9.037-10.637v3.023H297.691z"/>
	<path fill="#186234" d="M297.691,625.343v16.759v3.023h3v-3.023v-16.204c-0.298-0.041-0.593-0.076-0.893-0.119
		C299.799,625.779,299.04,625.605,297.691,625.343z"/>
	<path fill="#186234" d="M300.691,211.109v-6.177l-0.447,0.384c-0.382-1.482-0.64-2.965-0.806-4.436h-0.92
		c-0.166,1.471-0.424,2.954-0.806,4.436l-0.02-0.017v7.121c0.829,2.69,1.287,5.557,1.287,8.515
		C298.978,217.492,299.583,214.166,300.691,211.109z"/>
	<path fill="#186234" d="M297.691,393.268v19.084c0.837,3.101,1.287,6.38,1.287,9.75c0-3.886,0.611-7.646,1.713-11.157v-17.857
		l-1.713,0.725L297.691,393.268z"/>
	<path fill="#186234" d="M300.691,495.812v-4.846c-1.022-0.89-2.019-1.782-3-2.675v8.928c0.837,3.101,1.287,6.38,1.287,9.75
		C298.978,503.082,299.589,499.323,300.691,495.812z"/>
	<path fill="#186234" d="M297.691,336.689v19.084c0.837,3.101,1.287,6.38,1.287,9.749c0-3.886,0.611-7.645,1.713-11.156v-17.858
		l-1.713,0.725L297.691,336.689z"/>
	<path fill="#186234" d="M297.691,421.557v19.084c0.837,3.101,1.287,6.38,1.287,9.749c0-3.886,0.611-7.646,1.713-11.156v-17.857
		l-1.713,0.725L297.691,421.557z"/>
	<path fill="#186234" d="M300.691,238.067v-17.836l-1.713,0.704l-1.287-0.529v19.068c0.837,3.101,1.287,6.38,1.287,9.75
		C298.978,245.337,299.589,241.578,300.691,238.067z"/>
	<path fill="#174323" d="M299.245,332.881c-0.157,0.205-0.318,0.411-0.472,0.615c0.122,1.232,0.205,2.476,0.205,3.737
		C298.978,335.761,299.08,334.311,299.245,332.881z"/>
	<path fill="#186234" d="M300.691,279.931l-1.713,0.725l-1.287-0.544v12.596c1.182-0.988,2.194-1.794,3-2.416V279.931z"/>
	<path fill="#186234" d="M297.691,364.978v19.085c0.837,3.101,1.287,6.38,1.287,9.75c0-3.886,0.611-7.646,1.713-11.157v-17.858
		l-1.713,0.725L297.691,364.978z"/>
	<path fill="#186234" d="M300.691,571.208v-64.964l-1.713,0.725l-1.287-0.544v65.106c1.58-0.1,2.506-0.247,2.506-0.247
		C300.365,571.261,300.526,571.232,300.691,571.208z"/>
	<path fill="#186234" d="M300.691,269.499v-21.001l-1.713,0.725l-1.287-0.544v22.227c0.837,3.101,1.287,6.38,1.287,9.75
		C298.978,276.77,299.589,273.01,300.691,269.499z"/>
	<path fill="#186234" d="M297.858,449.917c0.943,1.671,1.888,3.292,2.834,4.837v-5.087l-1.713,0.725L297.858,449.917z"/>
	<path fill="#186234" d="M298.631,583.595c-0.318,0-0.626-0.009-0.94-0.014v28.625c0.988,0.145,1.991,0.302,3,0.465v-29.129
		C299.384,583.613,298.631,583.595,298.631,583.595z"/>
	<path fill="#186234" d="M252.253,351.246c0,3.778,0.578,7.435,1.622,10.861c0.752-3.124,1.615-6.153,2.572-9.087L252.253,351.246z"
		/>
	<path fill="#186234" d="M298.978,393.813c0-3.369-0.45-6.648-1.287-9.75c-2.34-8.673-7.736-15.941-14.998-19.819
		c-0.375,1.213-0.714,2.399-1.018,3.557c7.102,3.945,12.169,11.623,13.662,20.525l-16.029-6.782
		c-0.11,1.392-0.172,2.685-0.197,3.865l18.579,7.86L298.978,393.813z"/>
	<path fill="#FFFFFF" d="M281.675,367.8c-1.374,5.229-2.062,9.876-2.366,13.743l16.029,6.782
		C293.844,379.423,288.777,371.746,281.675,367.8z"/>
	<path fill="#186234" d="M300.691,393.088l26.613-11.258c11.045-4.673,18.398-16.897,18.398-30.583l-28.326,11.983
		c-7.909,3.345-13.907,10.572-16.686,19.426c-1.102,3.511-1.713,7.27-1.713,11.157L300.691,393.088z M318.465,366.718l23.598-9.984
		c-1.643,9.793-7.6,18.118-15.844,21.606l-23.6,9.984C304.264,378.531,310.219,370.206,318.465,366.718z"/>
	<path fill="#FFFFFF" d="M342.063,356.733l-23.598,9.984c-8.246,3.488-14.201,11.814-15.846,21.606l23.6-9.984
		C334.463,374.852,340.42,366.526,342.063,356.733z"/>
	<path fill="#186234" d="M255.895,328.445l9.414,3.982c0.586-1.084,1.181-2.148,1.784-3.194l-14.84-6.278
		c0,8.246,2.684,15.948,7.221,21.8c0.5-1.225,1.016-2.429,1.545-3.616C258.471,337.491,256.682,333.14,255.895,328.445z"/>
	<path fill="#186234" d="M298.978,365.522c0-3.369-0.45-6.648-1.287-9.749c-1.199-4.443-3.211-8.505-5.854-11.945
		c-0.639,1.079-1.25,2.151-1.828,3.212c2.66,3.708,4.519,8.171,5.328,12.993l-9.626-4.072c-0.48,1.144-0.927,2.271-1.342,3.38
		l13.322,5.636L298.978,365.522z"/>
	<path fill="#FFFFFF" d="M261.02,341.14c1.35-3.03,2.788-5.935,4.289-8.713l-9.414-3.982
		C256.682,333.14,258.471,337.491,261.02,341.14z"/>
	<path fill="#FFFFFF" d="M290.009,347.041c-1.668,3.062-3.089,6.042-4.298,8.921l9.626,4.072
		C294.528,355.212,292.669,350.749,290.009,347.041z"/>
	<path fill="#186234" d="M300.691,364.798l26.613-11.259c11.045-4.673,18.398-16.896,18.398-30.583l-28.326,11.983
		c-7.909,3.347-13.907,10.574-16.686,19.427c-1.102,3.511-1.713,7.27-1.713,11.156L300.691,364.798z M318.465,338.429l23.598-9.982
		c-1.643,9.793-7.6,18.117-15.844,21.605l-23.6,9.983C304.264,350.242,310.219,341.917,318.465,338.429z"/>
	<path fill="#FFFFFF" d="M342.063,328.446l-23.598,9.982c-8.246,3.488-14.201,11.813-15.846,21.606l23.6-9.983
		C334.463,346.564,340.42,338.239,342.063,328.446z"/>
	<path fill="#186234" d="M271.739,321.762c-8.244-3.488-14.202-11.813-15.844-21.605l23.598,9.982
		c0.227,0.096,0.445,0.209,0.668,0.313c0.811-0.983,1.618-1.933,2.417-2.851c-0.652-0.344-1.318-0.662-1.999-0.95l-28.327-11.983
		c0,13.308,6.964,25.212,17.502,30.157c0.657-1.042,1.318-2.064,1.986-3.062L271.739,321.762z"/>
	<path fill="#186234" d="M298.978,337.233c0-1.262-0.083-2.505-0.205-3.737c-0.704,0.934-1.379,1.864-2.035,2.789l0.954,0.403
		L298.978,337.233z"/>
	<path fill="#FFFFFF" d="M255.895,300.156c1.642,9.792,7.6,18.117,15.844,21.605l0.001,0c2.774-4.15,5.624-7.924,8.421-11.311
		c-0.223-0.103-0.442-0.217-0.668-0.313L255.895,300.156z"/>
	<path fill="#186234" d="M342.063,300.157c-1.643,9.793-7.6,18.117-15.844,21.605l-23.6,9.983c0.248-1.478,0.606-2.916,1.043-4.316
		c-1.569,1.828-3.038,3.646-4.417,5.45c-0.166,1.431-0.267,2.881-0.267,4.353l1.713-0.725l26.613-11.259
		c11.045-4.673,18.398-16.897,18.398-30.583l-10.33,4.37c-4.78,4.195-8.568,7.027-10.439,8.366L342.063,300.157z"/>
	<path fill="#FFFFFF" d="M326.219,321.763c8.244-3.488,14.201-11.813,15.844-21.605l-17.128,7.246
		c-0.823,0.589-1.282,0.895-1.282,0.895c-7.999,6.393-14.576,12.824-19.99,19.133c-0.438,1.399-0.795,2.838-1.043,4.316
		L326.219,321.763z"/>
	<path fill="#186234" d="M271.739,293.473c-8.244-3.488-14.202-11.813-15.844-21.605l23.598,9.983
		c6.206,2.626,11.114,7.994,13.864,14.664c0.911-0.837,1.773-1.606,2.582-2.31c-3.144-7.2-8.545-12.961-15.358-15.844
		l-28.327-11.983c0,13.687,7.354,25.91,18.398,30.583l15.589,6.595c0.924-0.983,1.829-1.915,2.71-2.802L271.739,293.473z"/>
	<path fill="#FFFFFF" d="M279.493,281.851l-23.598-9.983c1.642,9.792,7.6,18.117,15.844,21.605l17.211,7.282
		c1.554-1.563,3.033-2.978,4.406-4.24C290.607,289.845,285.698,284.476,279.493,281.851z"/>
	<path fill="#284D1F" d="M315.6,279.206c-2.851,1.471-5.419,3.46-7.639,5.851C310.645,283.094,313.188,281.143,315.6,279.206z"/>
	<path fill="#186234" d="M297.691,270.906c-2.562-9.496-8.785-17.311-17.112-20.833l-28.327-11.984
		c0,13.687,7.354,25.91,18.398,30.583l27.041,11.44l1.287,0.544C298.978,277.287,298.528,274.008,297.691,270.906z M271.739,265.184
		c-8.244-3.488-14.202-11.813-15.844-21.605l23.598,9.983c8.244,3.488,14.202,11.815,15.845,21.607L271.739,265.184z"/>
	<path fill="#FFFFFF" d="M279.493,253.561l-23.598-9.983c1.642,9.792,7.6,18.117,15.844,21.605l23.598,9.984
		C293.695,265.376,287.737,257.05,279.493,253.561z"/>
	<path fill="#186234" d="M300.691,279.931l26.613-11.259c0.216-0.092,0.422-0.205,0.635-0.302
		c6.411-6.19,11.528-12.15,15.602-17.757c1.395-3.891,2.161-8.13,2.161-12.524l-28.326,11.984
		c-7.909,3.346-13.907,10.572-16.686,19.426c-1.102,3.511-1.713,7.27-1.713,11.157L300.691,279.931z M318.465,253.561l23.598-9.983
		c-1.643,9.793-7.6,18.118-15.844,21.605l-23.6,9.984C304.264,265.375,310.219,257.05,318.465,253.561z"/>
	<path fill="#FFFFFF" d="M342.063,243.578l-23.598,9.983c-8.246,3.488-14.201,11.814-15.846,21.607l23.6-9.984
		C334.463,261.696,340.42,253.371,342.063,243.578z"/>
	<path fill="#186234" d="M297.691,239.474c-2.562-9.496-8.785-17.312-17.112-20.833l-28.327-11.983
		c0,13.687,7.354,25.909,18.398,30.583l27.041,11.439l1.287,0.544C298.978,245.854,298.528,242.575,297.691,239.474z
		 M271.739,233.752c-8.244-3.488-14.202-11.814-15.844-21.607l23.598,9.984c8.244,3.488,14.202,11.814,15.845,21.605
		L271.739,233.752z"/>
	<path fill="#FFFFFF" d="M279.493,222.13l-23.598-9.984c1.642,9.792,7.6,18.118,15.844,21.607l23.598,9.983
		C293.695,233.943,287.737,225.618,279.493,222.13z"/>
	<path fill="#186234" d="M300.691,248.499l26.613-11.258c11.045-4.674,18.398-16.896,18.398-30.583l-28.326,11.983
		c-7.909,3.345-13.907,10.572-16.686,19.426c-1.102,3.511-1.713,7.27-1.713,11.157L300.691,248.499z M318.465,222.129l23.598-9.984
		c-1.643,9.793-7.6,18.118-15.844,21.607l-23.6,9.983C304.264,233.941,310.219,225.617,318.465,222.129z"/>
	<path fill="#FFFFFF" d="M342.063,212.145l-23.598,9.984c-8.246,3.488-14.201,11.813-15.846,21.605l23.6-9.983
		C334.463,230.263,340.42,221.938,342.063,212.145z"/>
	<path fill="#186234" d="M300.691,204.932l14.834-12.727c5.959-5.112,8.244-15.036,5.719-24.829l-15.281,13.111
		c-5.056,4.339-7.454,12.145-6.525,20.394c0.166,1.471,0.424,2.954,0.806,4.436L300.691,204.932z M308.195,182.84l10.916-8.4
		c0.162,6.551-2.004,12.479-5.818,15.412l-10.914,8.4C302.217,191.701,304.383,185.773,308.195,182.84z"/>
	<path fill="#FFFFFF" d="M313.293,189.852c3.814-2.934,5.98-8.861,5.818-15.412l-10.916,8.4c-3.813,2.934-5.978,8.861-5.816,15.412
		L313.293,189.852z"/>
	<path fill="#186234" d="M300.691,220.231l21.533-8.844c9.065-3.723,15.098-13.461,15.098-24.366l-23.246,9.548
		c-6.201,2.548-10.982,7.913-13.385,14.54c-1.109,3.058-1.713,6.383-1.713,9.826L300.691,220.231z M314.969,199.348l19.367-7.954
		c-1.35,7.803-6.238,14.436-13.002,17.214l-19.367,7.954C303.314,208.76,308.203,202.127,314.969,199.348z"/>
	<path fill="#FFFFFF" d="M334.336,191.394l-19.367,7.954c-6.766,2.779-11.654,9.412-13.002,17.214l19.367-7.954
		C328.098,205.829,332.986,199.196,334.336,191.394z"/>
	<path fill="#186234" d="M298.518,200.88c0.93-8.249-1.469-16.055-6.525-20.394l-15.28-13.111
		c-2.525,9.793-0.24,19.717,5.718,24.829l15.261,13.094l0.02,0.017C298.093,203.834,298.352,202.351,298.518,200.88z
		 M295.578,198.252l-10.914-8.4c-3.815-2.934-5.982-8.861-5.819-15.412l10.916,8.4C293.573,185.773,295.74,191.701,295.578,198.252z
		"/>
	<path fill="#FFFFFF" d="M289.76,182.84l-10.916-8.4c-0.162,6.551,2.005,12.479,5.819,15.412l10.914,8.4
		C295.74,191.701,293.573,185.773,289.76,182.84z"/>
	<path fill="#186234" d="M297.691,212.419c-2.225-7.224-7.208-13.138-13.811-15.851l-23.247-9.548
		c0,10.905,6.034,20.644,15.098,24.366l21.96,9.019l1.287,0.529C298.978,217.976,298.52,215.109,297.691,212.419z M276.624,208.607
		c-6.766-2.778-11.654-9.411-13.002-17.214l19.366,7.954c6.767,2.779,11.654,9.412,13.002,17.214L276.624,208.607z"/>
	<path fill="#FFFFFF" d="M282.987,199.348l-19.366-7.954c1.348,7.803,6.237,14.436,13.002,17.214l19.365,7.954
		C294.641,208.76,289.753,202.127,282.987,199.348z"/>
	<path fill="#186234" d="M381.947,208.215c0,0,1.828-80.653-76.002-79.605c0,0-37.578-3.396-68.674,37.593
		c0,0-9.931-1.184-11.89,9.817c0,0-4.079,15.867-0.642,20.799c-0.727,3.001-1.887,7.054-3.145,8.497c0,0-5.322,8.128-10.023,8.816
		c0,0,5.142,0.688,11.778-6.778c0,0-0.123,7.32,3.697,13.581c0,0-3.036-11.223-1.861-15.447c0,0,0.686-4.113,1.642-7.276
		c0.044,0.008,0.076,0.035,0.121,0.042c0,0,10.578,1.604,23.375-21.316l1.045-1.702c0,0,15.148-31.432,58.233-28.813
		c0,0,50.135,1.839,49.602,61.036c0,0,2.576,18.049-15.661,43.155c-4.073,5.608-9.19,11.568-15.602,17.757
		c-3.671,3.545-7.767,7.164-12.34,10.836c-2.412,1.937-4.955,3.888-7.639,5.851c-1.665,1.218-3.377,2.439-5.151,3.665
		c0,0-0.772,0.531-2.119,1.57c-0.806,0.622-1.818,1.428-3,2.416c-0.549,0.459-1.135,0.959-1.753,1.497
		c-0.809,0.704-1.671,1.473-2.582,2.31c-1.373,1.262-2.852,2.677-4.406,4.24c-0.882,0.887-1.786,1.819-2.71,2.802
		c-1.194,1.269-2.418,2.616-3.662,4.044c-0.799,0.918-1.606,1.868-2.417,2.851c-2.797,3.387-5.647,7.161-8.421,11.311
		c-0.667,0.998-1.329,2.02-1.986,3.062c-0.901,1.429-1.789,2.899-2.662,4.41c-0.603,1.045-1.198,2.11-1.784,3.194
		c-1.501,2.777-2.939,5.682-4.289,8.713c-0.529,1.187-1.045,2.391-1.545,3.616c-1.087,2.664-2.1,5.42-3.028,8.264
		c-0.957,2.934-1.82,5.963-2.572,9.087c-2.178,9.05-3.425,18.888-3.3,29.499c0,0-2.05,20.803,10.711,48.328l19.295,8.163
		c11.046,4.673,18.398,16.896,18.398,30.583c0-6.849,1.842-13.331,5.066-18.684c-1.106-1.655-2.227-3.404-3.353-5.242
		c-0.945-1.544-1.891-3.166-2.834-4.837l-27.207-11.509c-11.044-4.674-18.398-16.896-18.398-30.583l28.327,11.983
		c1.882,0.796,3.646,1.826,5.295,3.03c-0.767-2.334-1.483-4.733-2.15-7.189l-13.073-5.53c-11.044-4.674-18.398-16.896-18.398-30.583
		l27.003,11.423c-0.11-1.388-0.193-3.257-0.143-5.55c0.025-1.18,0.087-2.473,0.197-3.865c0.305-3.867,0.992-8.514,2.366-13.743
		c0.304-1.158,0.643-2.344,1.018-3.557c0.492-1.59,1.048-3.225,1.675-4.901c0.415-1.11,0.862-2.237,1.342-3.38
		c1.209-2.879,2.629-5.86,4.298-8.921c0.578-1.061,1.189-2.133,1.828-3.212c1.464-2.473,3.092-4.991,4.9-7.543
		c0.656-0.926,1.331-1.855,2.035-2.789c0.154-0.205,0.316-0.41,0.472-0.615c1.379-1.804,2.848-3.622,4.417-5.45
		c5.414-6.309,11.991-12.74,19.99-19.133c0,0,0.459-0.306,1.282-0.895c1.87-1.339,5.658-4.17,10.439-8.366
		C352.395,284.098,381.95,251.876,381.947,208.215z"/>
	<path fill="#186234" d="M312.508,501.245c6.721,6.928,14.921,17.991,16.42,31.808c0,0,5.165,33.181-28.236,38.155
		c-0.166,0.025-0.326,0.053-0.494,0.076c0,0-0.926,0.147-2.506,0.247c-7.885,0.497-32.439-0.221-43.857-26.66
		c0,0,2.456,38.137,43.857,38.71c0.313,0.004,0.622,0.014,0.94,0.014c0,0,0.753,0.018,2.06-0.053
		c8.825-0.48,43.133-5.069,44.951-47.344c0,0,2.234-21.857-13.901-43.641c-1.401,0.943-2.878,1.768-4.436,2.428L312.508,501.245z"/>
	<path fill="#186234" d="M281.256,471.182c4.724,5.674,10.164,11.407,16.435,17.109c0.981,0.893,1.978,1.784,3,2.675
		c0.449,0.391,0.913,0.781,1.369,1.172c3.078-6.992,8.292-12.602,14.856-15.534c-1.017-1.121-2.194-2.466-3.499-4.034l-14.44,6.109
		L281.256,471.182z"/>
	<path fill="#186234" d="M297.691,497.219c-2.562-9.496-8.785-17.311-17.112-20.833l-28.327-11.984
		c0,13.688,7.354,25.91,18.398,30.583l27.041,11.44l1.287,0.544C298.978,503.599,298.528,500.32,297.691,497.219z M271.739,491.497
		c-8.244-3.488-14.202-11.815-15.844-21.607l23.598,9.984c8.244,3.488,14.202,11.814,15.845,21.605L271.739,491.497z"/>
	<path fill="#FFFFFF" d="M279.493,479.875l-23.598-9.984c1.642,9.792,7.6,18.118,15.844,21.607l23.598,9.983
		C293.695,491.689,287.737,483.363,279.493,479.875z"/>
	<path fill="#186234" d="M302.061,492.138c-0.522,1.186-0.974,2.415-1.369,3.674c-1.102,3.511-1.713,7.27-1.713,11.157l1.713-0.725
		l11.816-4.999l14.797-6.26c1.559-0.66,3.035-1.484,4.436-2.428c8.528-5.74,13.962-16.4,13.962-28.155l-28.326,11.984
		c-0.157,0.066-0.305,0.149-0.46,0.219C310.353,479.536,305.138,485.147,302.061,492.138z M318.465,479.875l23.598-9.984
		c-1.643,9.793-7.6,18.118-15.844,21.607l-23.6,9.983C304.264,491.688,310.219,483.363,318.465,479.875z"/>
	<path fill="#FFFFFF" d="M326.219,491.497c8.244-3.488,14.201-11.814,15.844-21.607l-23.598,9.984
		c-8.246,3.488-14.201,11.813-15.846,21.605L326.219,491.497z"/>
	<path fill="#186234" d="M280.58,448.097l-19.295-8.163l-9.032-3.821c0,13.686,7.354,25.909,18.398,30.582l10.605,4.487
		l17.722,7.498C298.978,464.993,291.625,452.77,280.58,448.097z M271.739,463.208c-8.244-3.488-14.202-11.814-15.844-21.606
		l23.598,9.984c8.244,3.488,14.202,11.814,15.845,21.605L271.739,463.208z"/>
	<path fill="#FFFFFF" d="M279.493,451.586l-23.598-9.984c1.642,9.792,7.6,18.118,15.844,21.606l23.598,9.983
		C293.695,463.399,287.737,455.074,279.493,451.586z"/>
	<path fill="#186234" d="M313.418,472.571l13.887-5.875c11.045-4.673,18.398-16.896,18.398-30.582l-28.326,11.983
		c-5.518,2.335-10.114,6.554-13.333,11.898c-3.224,5.353-5.066,11.836-5.066,18.684L313.418,472.571z M318.465,451.586l23.598-9.984
		c-1.643,9.793-7.6,18.118-15.844,21.606l-23.6,9.983C304.264,463.398,310.219,455.074,318.465,451.586z"/>
	<path fill="#FFFFFF" d="M326.219,463.208c8.244-3.488,14.201-11.814,15.844-21.606l-23.598,9.984
		c-8.246,3.488-14.201,11.813-15.846,21.605L326.219,463.208z"/>
	<path fill="#186234" d="M297.691,440.641c-1.983-7.35-6.168-13.679-11.817-17.803c-1.649-1.204-3.413-2.234-5.295-3.03
		l-28.327-11.983c0,13.687,7.354,25.909,18.398,30.583l27.207,11.509l1.12,0.474C298.978,447.021,298.528,443.742,297.691,440.641z
		 M271.739,434.919c-8.244-3.488-14.202-11.814-15.844-21.606l23.598,9.983c8.244,3.488,14.202,11.814,15.845,21.605
		L271.739,434.919z"/>
	<path fill="#FFFFFF" d="M279.493,423.296l-23.598-9.983c1.642,9.792,7.6,18.118,15.844,21.606l23.598,9.982
		C293.695,435.109,287.737,426.784,279.493,423.296z"/>
	<path fill="#186234" d="M300.691,449.666l26.613-11.259c11.045-4.674,18.398-16.896,18.398-30.583l-28.326,11.983
		c-7.909,3.346-13.907,10.573-16.686,19.427c-1.102,3.511-1.713,7.27-1.713,11.156L300.691,449.666z M318.465,423.296l23.598-9.983
		c-1.643,9.793-7.6,18.118-15.844,21.606l-23.6,9.982C304.264,435.108,310.219,426.784,318.465,423.296z"/>
	<path fill="#FFFFFF" d="M342.063,413.313l-23.598,9.983c-8.246,3.488-14.201,11.813-15.846,21.605l23.6-9.982
		C334.463,431.431,340.42,423.105,342.063,413.313z"/>
	<path fill="#186234" d="M298.978,422.102c0-3.37-0.45-6.648-1.287-9.75c-2.562-9.496-8.785-17.311-17.112-20.833l-1.324-0.56
		l-27.003-11.423c0,13.687,7.354,25.909,18.398,30.583l13.073,5.53l13.967,5.909L298.978,422.102z M271.739,406.63
		c-8.244-3.488-14.202-11.815-15.844-21.607l23.598,9.984c8.244,3.488,14.202,11.814,15.845,21.606L271.739,406.63z"/>
	<path fill="#FFFFFF" d="M279.493,395.008l-23.598-9.984c1.642,9.792,7.6,18.118,15.844,21.607l23.598,9.984
		C293.695,406.822,287.737,398.496,279.493,395.008z"/>
	<path fill="#186234" d="M300.691,421.377l26.613-11.259c11.045-4.674,18.398-16.896,18.398-30.583l-28.326,11.983
		c-7.909,3.346-13.907,10.573-16.686,19.426c-1.102,3.511-1.713,7.27-1.713,11.157L300.691,421.377z M318.465,395.007l23.598-9.984
		c-1.643,9.793-7.6,18.118-15.844,21.606l-23.6,9.984C304.264,406.82,310.219,398.495,318.465,395.007z"/>
	<path fill="#FFFFFF" d="M342.063,385.022l-23.598,9.984c-8.246,3.488-14.201,11.814-15.846,21.607l23.6-9.984
		C334.463,403.141,340.42,394.815,342.063,385.022z"/>
	<path fill="#186234" d="M208.242,643.037c0,3.528,2.928,6.39,6.539,6.39c2.036,0,3.854-0.909,5.053-2.335l0.033,0.02
		c0.026-0.058,0.055-0.111,0.081-0.169c0.534-0.673,0.931-1.452,1.156-2.302c4.032-7.4,10.222-12.429,17.402-15.773
		c10.796,13.367,9.178,42.86,9.178,42.86c-0.83,28.309-22.004,37.052-22.004,37.052c33.629,19.693,36.951-34.18,36.951-34.18
		c1.868-24.211-5.499-45.161-9.838-50.2c18.568-3.55,38.508-0.298,44.898,0.943c1.349,0.262,2.107,0.437,2.107,0.437
		c0.299,0.043,0.594,0.078,0.893,0.119c28.034,3.826,50.467-3.222,50.467-3.222c-11.414,16.578-14.211,41.258-14.211,41.258
		c-5.967,55.129,23.664,49.231,23.664,49.231c18.27-2.872,15.777-26.667,15.777-26.667c-3.889,8.344-12.871,9.257-12.871,9.257
		c-17.34,1.454-12.709-31.617-12.709-31.617c4.594-38.738,38.244-58.667,38.244-58.667l-0.039-0.079
		c2.238-1.148,3.775-3.482,3.775-6.184c0-3.834-3.09-6.942-6.902-6.942c-1.096,0-4.617,1.721-5.184,2.368
		c-34.025,26.089-78.838,18.222-78.838,18.222c-0.396-0.066-0.781-0.122-1.174-0.185c-1.009-0.162-2.012-0.32-3-0.465
		C221.269,601.015,208.242,642.089,208.242,643.037z"/>
</g>
</svg>
